<?xml version="1.0" standalone="no"?><!DOCTYPE svg PUBLIC "-//W3C//DTD SVG 1.1//EN" "http://www.w3.org/Graphics/SVG/1.1/DTD/svg11.dtd"><svg t="1600842642040" class="icon" viewBox="0 0 1024 1024" version="1.1" xmlns="http://www.w3.org/2000/svg" p-id="3955" xmlns:xlink="http://www.w3.org/1999/xlink" width="64" height="64"><defs><style type="text/css"></style></defs><path d="M828.86 669.14c-0.11-1.36-0.25-2.71-0.4-4.05l-0.18-1.68c-0.44-4.18-0.96-8.3-1.61-12.39a242.348 242.348 0 0 0-3.54-17.87l-0.32-1.39c-0.3-1.32-0.6-2.64-0.93-3.86-1.33-5.19-2.79-10.3-4.34-15.17l-0.28-0.94-0.03-0.09c-0.86-2.66-1.76-5.3-2.7-7.92a295.5 295.5 0 0 0-2.67-7.21c-0.04-0.11-0.08-0.22-0.12-0.34l-1.85-4.68c-1.41-3.55-2.85-7.08-4.38-10.63l-2.16-4.93c-1.37-3.09-2.77-6.14-4.2-9.19-0.17-0.36-0.33-0.73-0.5-1.09l-0.01-0.02c-0.01-0.01-0.01-0.01-0.01-0.03l-1.72-3.66 0.11-0.08s-6.04-12.14-6.88-13.81l-9.15-18.29-0.07 0.05c-8.58-16.95-16.65-33.12-22.89-49.42-11.99-31.28-48.2-131.54-76.47-210.14l-3.24-9-21.59-60.12-0.01 0.01-5.69-15.87-30.24-84.46-0.19-0.53-0.12-0.34-0.99-2.72 0.02-0.01-0.87-2.43-0.02 0.01L612 76.56 320.51 204.25l-16.28 8.31 9.1 19.24 0.24 0.5c2.28 4.8 6.41 13.57 11.88 25.27l0.73 1.58c5.04 10.82 11.12 23.97 17.83 38.65l11.18 24.69c2.1 4.65 4.67 10.39 6.34 14.11h-0.01c5.78 12.96 11.73 26.47 17.67 40.15l0.25 0.55c2.91 6.73 5.79 13.45 8.57 19.98l1.12 2.62 0.18 0.45 0.09 0.2 0.01 0.01c49.91 117.66 51.89 143.5 51.57 148.22-6.75 15.33-64.43 57.55-171.46 125.5l-12.92 8.2c-18.69 11.85-34.84 22.08-45.3 29.16v-0.01l-0.41 0.28c-3.21 2.18-5.83 4.04-8.31 5.93-1.28 0.99-2.38 1.9-3.15 2.62-5.97 5.51-58.4 55.65-59.01 116.66l-0.01 1.05h0.06-0.06c0 2.36 0.27 4.67 0.43 6.99 0.12 1.77 0.12 3.58 0.33 5.34 0.31 2.53 0.87 5 1.36 7.5 0.33 1.68 0.53 3.38 0.95 5.03 0.69 2.74 1.65 5.41 2.57 8.09 0.46 1.33 0.78 2.71 1.3 4.03 1.55 3.98 3.36 7.89 5.43 11.71 0.08 0.16 0.18 0.31 0.26 0.47 7.95 14.66 16.07 29.46 26.96 41.87 0.15 0.17 0.31 0.36 0.47 0.53 1.87 2.11 3.83 4.16 5.89 6.11l0.31 0.31c3.98 3.75 8.31 7.18 13.12 10.19 0.12 0.08 0.23 0.17 0.34 0.25 0.31 0.2 0.67 0.32 0.99 0.51 2.72 1.63 5.61 3.11 8.63 4.47 0.98 0.44 1.96 0.9 2.96 1.3 3.28 1.32 6.71 2.5 10.37 3.47 0.98 0.25 2.01 0.44 3.01 0.67 2.93 0.67 5.99 1.22 9.17 1.67 1.29 0.17 2.58 0.35 3.9 0.49 4.09 0.41 8.34 0.7 12.87 0.7 0.08 0 0.16 0.02 0.24 0.02 2.13 0 4.3-0.05 6.52-0.14 0.47-0.02 0.95-0.06 1.42-0.08 1.74-0.08 3.49-0.18 5.29-0.32 0.73-0.05 1.5-0.14 2.24-0.21 1.57-0.14 3.14-0.28 4.75-0.46 0.89-0.11 1.8-0.23 2.7-0.34 1.51-0.19 3.04-0.38 4.61-0.61 0.98-0.14 1.98-0.3 2.98-0.45 1.54-0.24 3.11-0.5 4.7-0.77 1.03-0.18 2.08-0.37 3.14-0.57 1.61-0.29 3.24-0.61 4.9-0.94 1.08-0.21 2.17-0.44 3.27-0.67 1.68-0.35 3.4-0.73 5.12-1.12 1.12-0.25 2.25-0.5 3.4-0.78 1.78-0.41 3.6-0.86 5.43-1.31 1.14-0.29 2.28-0.57 3.43-0.86 1.93-0.5 3.89-1.03 5.87-1.56 1.12-0.31 2.24-0.6 3.39-0.92 2.16-0.6 4.39-1.25 6.62-1.89 1.01-0.3 2-0.57 3.02-0.87 2.69-0.8 5.45-1.65 8.24-2.52l1.83-0.56c3.48-1.09 7.04-2.23 10.68-3.43 0.22-0.08 0.47-0.16 0.7-0.24 3.36-1.1 6.78-2.26 10.27-3.46 1.07-0.37 2.18-0.76 3.27-1.14 2.69-0.94 5.41-1.89 8.18-2.88 1.35-0.48 2.74-0.99 4.1-1.48 1.96-0.7 3.88-1.39 5.87-2.13l0.01 0.06 15.34-5.8c0.31-0.12 0.6-0.21 0.9-0.34l0.82-0.31 5.02-1.9c29.21-11.04 60.84-22.38 91.41-33.35 55.43-19.89 112.05-40.22 162.06-61.29l0.06 0.14 16.12-7.07c0.91-0.4 1.74-0.79 2.63-1.19 2.99-1.32 5.93-2.64 8.85-3.97 2.01-0.9 4.05-1.82 6.01-2.72 2.98-1.38 5.9-2.77 8.81-4.15 1.68-0.79 3.41-1.6 5.06-2.39 4.15-2.02 8.22-4.04 12.21-6.06 0.27-0.14 0.55-0.27 0.81-0.4 4.28-2.19 8.48-4.38 12.56-6.59l-0.01-0.01c0.14-0.07 0.28-0.15 0.42-0.22 4.2-2.27 8.29-4.55 12.25-6.85l0.79-0.48c3.83-2.23 7.58-4.47 11.17-6.72 0.04-0.02 0.07-0.04 0.11-0.07l1.09-0.7 0.01-0.01v0.01c3.44-2.19 6.81-4.37 10.01-6.57 0.02-0.01 0.05-0.03 0.07-0.05l1.48-1.06c3.05-2.13 6.05-4.25 8.87-6.4v-0.01c0.01 0 0.02-0.02 0.03-0.02l1.84-1.47c2.67-2.08 5.29-4.15 7.73-6.24 0.56-0.47 1.08-0.95 2.12-1.91 2.28-2.02 4.53-4.04 6.59-6.07 0.62-0.6 1.19-1.22 1.74-1.83l0.75-0.8c1.41-1.45 2.75-2.92 4.06-4.37 0.41-0.44 0.86-0.89 1.25-1.34 0.64-0.76 1.22-1.51 1.8-2.26l0.99-1.25c0.78-0.98 1.49-1.97 2.24-2.94 0.57-0.75 1.2-1.49 1.72-2.24v-0.01-0.01c0.69-0.98 1.29-1.97 2.26-3.63l0.6-0.93c0.99-1.55 1.96-3.11 2.81-4.71 0.63-1.21 1.15-2.4 1.65-3.61l0.71-1.59c0.71-1.52 1.39-3.04 1.94-4.57h-0.01c0.01-0.01 0.01-0.02 0.01-0.02 0.56-1.58 0.97-3.16 1.35-4.75l0.4-1.51c0.41-1.37 0.77-2.75 1-4.05v-0.01c0.01-0.02 0.01-0.03 0.01-0.05h-0.01c0.51-2.87 0.82-5.81 0.9-9.11l0.06-0.52v-1.1c-0.02-5.8-0.28-11.91-0.83-18.65z" p-id="3956"></path><path d="M369.02 309.96c-0.38-0.83-0.75-1.66-1.12-2.49 0.37 0.82 0.76 1.65 1.12 2.49zM805.82 637.2zM601.9 100.81c0.14 0.41 0.45 1.28 0.88 2.46-0.43-1.2-0.73-2.03-0.88-2.46zM627.72 172.96c0.12 0.35 0.27 0.73 0.39 1.09-2.76-7.69-5.37-14.99-7.79-21.75 2.32 6.45 4.78 13.34 7.4 20.66zM809.22 702.99c-0.49 1.38-1.19 2.75-1.81 4.12 0.61-1.36 1.32-2.74 1.81-4.12zM800.55 617.96zM811.23 695.45c-0.2 1.13-0.6 2.24-0.89 3.37 0.28-1.13 0.69-2.24 0.89-3.37zM328.91 223.19c-0.34-0.71-0.6-1.27-0.8-1.7 0.19 0.41 0.49 1.04 0.8 1.7zM327.93 221.12c-0.18-0.37-0.29-0.6-0.29-0.6s0.15 0.32 0.29 0.6zM329.63 224.69c-0.07-0.14-0.15-0.32-0.22-0.46 0.06 0.14 0.15 0.32 0.22 0.46zM801.42 717.83c-1.13 1.63-2.46 3.24-3.75 4.86 1.3-1.61 2.62-3.23 3.75-4.86zM809.12 653.84c0.6 3.76 1.08 7.58 1.49 11.45-0.42-3.87-0.9-7.7-1.49-11.45zM342.28 251.64c-0.02-0.03-0.03-0.06-0.04-0.09 0.01 0.02 0.02 0.06 0.04 0.09zM811.16 670.58c0.46 5.64 0.76 11.35 0.76 17.22 0-5.87-0.3-11.58-0.76-17.22zM789 732.36c-1.85 1.82-3.88 3.63-5.92 5.44 2.04-1.82 4.07-3.62 5.92-5.44zM811.92 687.83c0 0.15-0.04 0.3-0.04 0.45 0-0.16 0.04-0.3 0.04-0.45zM789.2 587.98c1.43 3.33 2.81 6.72 4.16 10.11-1.35-3.4-2.73-6.78-4.16-10.11zM772.4 746.59c-2.64 2-5.44 3.99-8.29 5.98 2.85-1.99 5.65-3.98 8.29-5.98zM221.06 726.46c0.12-0.08 0.23-0.15 0.35-0.24-0.12 0.09-0.24 0.16-0.35 0.24zM790.93 730.31c1.67-1.73 3.35-3.45 4.83-5.19-1.48 1.74-3.16 3.47-4.83 5.19z" fill="#FFFFFF" p-id="3957"></path><path d="M774.24 556.06c2.19 4.38 4.34 8.8 6.47 13.25-13.59-28.43-28.78-55.08-39.28-82.51-11.85-30.94-47.27-128.92-79.47-218.47 0.96 2.67 1.91 5.31 2.88 7.99L405.59 393.25c-0.04-0.08-0.07-0.16-0.1-0.24 30.57 72.03 57.45 143.06 52.67 160.37-7.03 25.48-108.59 91.12-179.48 136.12 39.9 29.51 116.18 99.97 125.3 212.8-1.94 0.73-3.92 1.48-5.86 2.21-174.91 66.57-195.8 36.55-229.74-26.1-7.43-13.71-10.35-27.6-10.22-41.1-0.13 13.51 2.79 27.4 10.22 41.1 33.94 62.66 54.83 92.68 229.74 26.11 109.9-41.83 245.01-84.18 330.3-130.27-16.8 9.07-35.54 18.01-55.63 26.82-53.64-119.45 49.6-209.22 101.45-245.01zM781.19 739.51c-2.23 1.91-4.64 3.81-7.08 5.71 2.44-1.9 4.85-3.8 7.08-5.71zM782.55 573.24c1.55 3.29 3.07 6.61 4.55 9.95-1.48-3.34-2.99-6.66-4.55-9.95zM762.67 753.6c-3.03 2.08-6.21 4.15-9.47 6.2 3.26-2.06 6.44-4.12 9.47-6.2zM603.7 105.86c0.11 0.33 0.22 0.63 0.35 0.98-0.12-0.33-0.24-0.68-0.35-0.98zM213.47 731.86zM805.93 710.46c-0.79 1.48-1.78 2.97-2.72 4.45 0.93-1.48 1.93-2.97 2.72-4.45zM795.1 602.49c1.85 4.85 3.62 9.74 5.23 14.75-1.61-5-3.37-9.9-5.23-14.75zM752.06 760.54zM740.63 767.42c-3.82 2.2-7.76 4.41-11.81 6.59 4.05-2.18 8-4.38 11.81-6.59zM656.05 251.87c-5.55-15.43-10.95-30.46-16.05-44.69 0.75 2.1 1.47 4.09 2.23 6.23L377.91 329.73c-0.06-0.13-0.12-0.25-0.18-0.38 5.88 13.17 11.93 26.91 17.96 40.81-0.1-0.21-0.19-0.44-0.28-0.66l260.64-117.63z" fill="#FFFFFF" p-id="3958"></path><path d="M398.13 904.51c1.94-0.73 3.92-1.48 5.86-2.21-9.12-112.83-85.4-183.29-125.3-212.8-24.49 15.55-45.29 28.61-57.28 36.73-0.12 0.08-0.24 0.16-0.35 0.24-3 2.03-5.42 3.74-7.19 5.09-0.14 0.11-0.27 0.21-0.4 0.31-0.81 0.63-1.52 1.19-2.01 1.65-13.25 12.24-52.81 55.54-53.29 103.79-0.13 13.5 2.79 27.4 10.22 41.1 33.94 62.65 54.82 92.67 229.74 26.1zM797.67 722.69c1.29-1.61 2.62-3.23 3.75-4.86 0.67-0.96 1.18-1.94 1.79-2.92 0.93-1.48 1.93-2.97 2.72-4.45 0.58-1.12 0.98-2.23 1.48-3.34 0.62-1.37 1.32-2.75 1.81-4.12 0.49-1.38 0.76-2.78 1.12-4.18 0.29-1.12 0.7-2.23 0.89-3.37 0.43-2.38 0.62-4.77 0.65-7.17 0-0.15 0.04-0.31 0.04-0.46v-0.02c0-5.87-0.3-11.59-0.76-17.22-0.14-1.78-0.37-3.53-0.55-5.29-0.41-3.87-0.89-7.69-1.49-11.45-0.31-1.9-0.63-3.79-0.97-5.67-0.69-3.71-1.47-7.36-2.33-10.97-0.38-1.64-0.73-3.28-1.16-4.9a273.08 273.08 0 0 0-4.11-14.35c-0.08-0.24-0.14-0.48-0.21-0.72-1.61-5-3.38-9.9-5.23-14.75-0.56-1.48-1.16-2.94-1.74-4.41-1.35-3.4-2.73-6.78-4.16-10.11-0.7-1.61-1.39-3.2-2.1-4.79-1.48-3.34-3.01-6.66-4.55-9.95-0.61-1.31-1.22-2.62-1.84-3.92-2.13-4.45-4.28-8.88-6.47-13.25-51.85 35.79-155.09 125.56-101.45 245.01 20.09-8.81 38.83-17.75 55.63-26.82l0.4-0.23c4.05-2.19 7.99-4.39 11.81-6.59 0.26-0.15 0.5-0.31 0.76-0.46 3.66-2.13 7.24-4.28 10.67-6.42 0.39-0.24 0.75-0.49 1.14-0.74 3.26-2.06 6.44-4.12 9.47-6.2 0.5-0.34 0.94-0.69 1.44-1.02 2.85-1.99 5.65-3.98 8.29-5.98 0.6-0.46 1.12-0.92 1.71-1.38 2.44-1.9 4.85-3.79 7.08-5.71 0.66-0.57 1.24-1.15 1.89-1.71 2.04-1.81 4.07-3.62 5.92-5.44 0.69-0.68 1.26-1.37 1.93-2.04 1.67-1.73 3.35-3.45 4.83-5.19 0.69-0.81 1.25-1.63 1.9-2.44z" fill="#E5E5E5" p-id="3959"></path><path d="M642.23 213.42c-0.77-2.14-1.48-4.13-2.23-6.23-4.17-11.63-8.18-22.81-11.89-33.14-0.12-0.35-0.27-0.73-0.39-1.09 2.28 6.36 4.67 13.01 7.14 19.91L368.04 307.76a5037.07 5037.07 0 0 0-0.13-0.29c0.37 0.83 0.74 1.66 1.12 2.49 2.85 6.29 5.75 12.76 8.71 19.4 0.06 0.13 0.11 0.25 0.18 0.38l264.31-116.32z" fill="#45B7FE" p-id="3960"></path><path d="M368.04 307.76l266.82-114.89c-2.47-6.9-4.86-13.55-7.14-19.91-2.62-7.32-5.09-14.2-7.4-20.67-7.54-21.04-13.29-37.12-16.27-45.45-0.13-0.35-0.24-0.65-0.35-0.98-0.36-1-0.67-1.86-0.93-2.59-0.43-1.18-0.73-2.04-0.88-2.46-0.08-0.21-0.14-0.38-0.14-0.38L327.64 220.51s0.12 0.24 0.29 0.6c0.05 0.1 0.12 0.26 0.18 0.38 0.2 0.43 0.47 0.99 0.8 1.7 0.17 0.34 0.31 0.63 0.5 1.04 0.07 0.14 0.15 0.32 0.22 0.46 2.38 5.03 6.78 14.36 12.61 26.85 0.01 0.03 0.02 0.06 0.04 0.09 5.06 10.85 11.16 24.05 17.89 38.8 2.54 5.57 5.17 11.36 7.87 17.33z" fill="#009CFF" p-id="3961"></path><path d="M664.84 276.32c-0.96-2.68-1.91-5.32-2.88-7.99-1.97-5.51-3.96-11.04-5.91-16.46L395.41 369.51c0.09 0.21 0.18 0.44 0.28 0.66 3.28 7.59 6.55 15.21 9.8 22.85 0.03 0.08 0.06 0.16 0.1 0.24l259.25-116.94z" fill="#EE4553" p-id="3962"></path></svg>